<svg xmlns="http://www.w3.org/2000/svg" width="430" height="430" style="width:100%;height:100%;transform:translate3d(0,0,0);content-visibility:visible" viewBox="0 0 430 430"><defs><clipPath id="c"><path d="M0 0h430v430H0z"/></clipPath><clipPath id="d"><path d="M0 0h430v430H0z"/></clipPath><clipPath id="b"><path d="M0 0h430v430H0z"/></clipPath><filter id="f" width="300%" height="300%" x="-100%" y="-100%"><feGaussianBlur result="filter_result_0" stdDeviation="52.5 52.5"/></filter><mask id="e" mask-type="alpha"><use xmlns:ns1="http://www.w3.org/1999/xlink" ns1:href="#a"/></mask><g id="a" fill-opacity="0" stroke-linecap="round" stroke-linejoin="round" clip-path="url(#b)" style="display:block"><g stroke-width="12" style="display:block"><path stroke="#121331" d="M215 130.751V91.569" class="primary"/><path stroke="#08A88A" d="M214.911 125.91v.171" class="secondary" opacity="0"/><path stroke="#121331" d="M214.911 125.91v.171" class="primary" opacity="0"/></g><g style="display:block"><path stroke="#121331" stroke-width="12" d="M255.003 284.802H134.94m223.179 33.449H71.881c-9.35 0-17-7.65-17-17V148.598c0-9.35 7.65-17 17-17h286.238c9.35 0 17 7.65 17 17v152.653c0 9.35-7.65 17-17 17zm-63.111-33.277h40.007m0-40.112v39.94m.074-120.089H94.911" class="primary"/><path stroke="#08A88A" stroke-width="16" d="M94.91 204.75v.171m0 39.769v.172m0 39.769v.171m40.03-80.138v.172m0 39.769v.171m40.03-39.94v.171m0 39.769v.171M215 204.921v.172m0 39.769v.171m40.002-40.112v.172m0 39.769v.171m40.005-40.112v.172m0 39.769v.171m40.008-40.112v.172" class="secondary"/></g></g></defs><g clip-path="url(#c)"><g clip-path="url(#d)" mask="url(#e)" style="display:block"><g filter="url(#f)" transform="rotate(-94 238.295 -17.065) scale(2.4)"><g class="design"><path fill="#4BE1EC" d="M0-250c137.975 0 250 112.025 250 250S137.975 250 0 250-250 137.975-250 0-137.975-250 0-250z" class="primary"/></g><g class="design"><path fill="#CB5EEE" d="M113.242-295.384c97.478 0 176.5 79.022 176.5 176.5s-79.022 176.5-176.5 176.5c-43.948 0-74.396-34.057-105.29-60.631-37.631-32.369-71.21-62.338-71.21-115.869 0-97.478 79.022-176.5 176.5-176.5z" class="secondary"/></g></g></g></g></svg>